<?xml version="1.0" encoding="utf-8"?>
<!-- Generator: Adobe Illustrator 27.4.0, SVG Export Plug-In . SVG Version: 6.00 Build 0)  -->
<svg version="1.1" id="Layer_1" xmlns="http://www.w3.org/2000/svg" xmlns:xlink="http://www.w3.org/1999/xlink" x="0px" y="0px"
	 viewBox="0 0 469.3 474.2" style="enable-background:new 0 0 469.3 474.2;" xml:space="preserve">
<g id="XMLID_3_">
	<path id="XMLID_8_" d="M401.3,71.1C358.9,28.7,300,2.5,235.4,2.5C105.1,2.1,0,107.2,0,236.9s105.1,234.8,234.8,234.8
		c64.9,0,123.4-26.3,165.8-68.7s68.7-101.3,68.7-165.8S443.7,113.5,401.3,71.1z M234.8,444.9c-28.8,0-56-5.7-81-16.1
		s-47.2-25.9-66.1-44.6C69,365.1,53.5,343,43,318c-10.8-25-16.5-52.2-16.5-81s5.7-56,16.1-81s25.9-47.2,44.6-66.1
		c18.7-18.7,41.1-34.2,66.1-44.6s52.2-16.1,81-16.1s56,5.7,81,16.1c25,10.4,47.2,25.9,66.1,44.6c18.7,18.7,34.2,41.1,44.6,66.1
		s16.1,52.2,16.1,81c0,28.5-5.7,56-16.1,81c-10.4,25-25.9,47.2-44.6,66.1C344.3,421.8,292.4,444.9,234.8,444.9z"/>
	<path id="XMLID_22_" d="M316.1,147.1c0,0,0.9-0.9,1.9-3.2c0.9-1.9,1.9-4.4,1.9-7c0-1.9-0.3-3.8-1.3-5.7c-1.9-3.5-4.4-5.7-7-6.6
		c-2.2-0.9-4.4-1.3-4.4-1.3h-68.7c-0.9,0-2.2,0.3-4.4,0.9c-2.2,0.3-4.7,1.3-7.3,3.2c-4.4,2.5-7,6.6-7,6.6l-93,127.5
		c0,0-0.9,1.3-1.6,3.2c-0.9,1.6-1.6,4.4-1.6,7.6c0,6,3.5,10.1,3.5,10.4l31.6,43.4c0,0,5.4,6.6,14.6,6.6c9.2,0,14.6-7.6,14.6-7.6
		L316.1,147.1z M316.8,136.9L316.8,136.9c0,2.2-0.9,4.4-1.3,5.7C315.8,141.1,316.8,139.2,316.8,136.9z"/>
	<path id="XMLID_23_" d="M126.9,240.1L126.9,240.1l67.4-94.3c0,0,1.6-3.2,1.6-7.9c0-2.2-0.3-4.7-1.6-7c-3.5-7.6-11.7-7.9-13.3-7.9
		c0,0,0,0-0.3,0h-66.5l-0.3,0.6c-1.6,0-6,0.3-10.4,3.2c-4.4,2.5-7,6.6-7,6.6l-32,43.7c-0.3,0.3-3.2,3.8-3.2,9.2
		c0,5.7,4.4,11.1,4.4,11.4l31,43c0,0,5.7,6.6,15.2,6.6C120.9,247.1,126.9,240.1,126.9,240.1z"/>
	<path id="XMLID_24_" d="M369.9,128.7c0,0-0.9-1.3-2.5-2.5c-1.9-1.3-3.8-2.5-7.3-2.5c-7.9,0-11.4,5.7-11.7,5.7L189.6,347.7
		c0,0-0.9,1.3-1.6,3.2c-0.9,1.6-1.6,4.4-1.6,7.9c0,6,3.5,10.1,3.8,11.1l29.7,40.8c0.3,0.3,4.7,7.6,15.2,7.6c8.9,0,13.9-7,13.9-7
		l155.4-213.6c0,0,0.3-1.3,1.3-3.2c0.9-2.2,1.3-4.7,1.3-7.9l0,0c0-5.7-1.3-8.2-1.9-8.2L369.9,128.7z"/>
</g>
</svg>
